<svg xmlns="http://www.w3.org/2000/svg" width="200" height="200" viewBox="0 0 200 200">
  <circle cx="100" cy="100" r="100" fill="#636E72"/>
  <!-- Main gear -->
  <circle cx="100" cy="95" r="28" stroke="white" stroke-width="5" fill="none"/>
  <circle cx="100" cy="95" r="12" fill="white"/>
  <!-- Gear teeth -->
  <rect x="96" y="60" width="8" height="14" rx="2" fill="white"/>
  <rect x="96" y="116" width="8" height="14" rx="2" fill="white"/>
  <rect x="64" y="91" width="14" height="8" rx="2" fill="white"/>
  <rect x="122" y="91" width="14" height="8" rx="2" fill="white"/>
  <rect x="73" y="68" width="8" height="12" rx="2" fill="white" transform="rotate(45 77 74)"/>
  <rect x="119" y="68" width="8" height="12" rx="2" fill="white" transform="rotate(-45 123 74)"/>
  <rect x="73" y="110" width="8" height="12" rx="2" fill="white" transform="rotate(-45 77 116)"/>
  <rect x="119" y="110" width="8" height="12" rx="2" fill="white" transform="rotate(45 123 116)"/>
  <!-- Small gear -->
  <circle cx="148" cy="135" r="16" stroke="white" stroke-width="4" fill="none"/>
  <circle cx="148" cy="135" r="6" fill="white"/>
  <rect x="145" y="115" width="6" height="8" rx="2" fill="white"/>
  <rect x="145" y="149" width="6" height="8" rx="2" fill="white"/>
  <rect x="128" y="132" width="8" height="6" rx="2" fill="white"/>
  <rect x="160" y="132" width="8" height="6" rx="2" fill="white"/>
</svg>
